<svg width="387" height="387" viewBox="0 0 387 387" fill="none" xmlns="http://www.w3.org/2000/svg">
<g clip-path="url(#clip0_13_6)">
<path d="M196.954 252.629C231.555 252.629 259.605 224.506 259.605 189.815C259.605 155.124 231.555 127.001 196.954 127.001C162.352 127.001 134.302 155.124 134.302 189.815C134.302 224.506 162.352 252.629 196.954 252.629Z" fill="#FFB6B6"/>
<path d="M160.987 261.918L158.157 233.232L214.679 222.636L248.055 304.109L190.01 371.034L148.653 289.56L160.987 261.918Z" fill="#FFB6B6"/>
<path d="M157.249 247.591L169.606 250.39C169.606 250.39 159.892 219.507 163.189 216.558C166.486 213.61 174.566 218.256 174.566 218.256L183.057 227.8L193.399 217.243C193.399 217.243 204.627 203.245 209.023 199.314C213.419 195.383 206.358 180.791 206.358 180.791C206.358 180.791 271.58 163.158 247.311 131.441C247.311 131.441 233.082 106.574 228.448 114.674C223.814 122.775 218.289 109.91 218.289 109.91L201.417 113.126C201.417 113.126 168.118 93.4413 136.513 135.553C104.908 177.665 157.249 247.591 157.249 247.591Z" fill="#045020"/>
<path d="M314.785 344.044C280.546 371.876 238.187 387 193.5 387C152.694 387 113.826 374.386 81.3133 351.006C81.3714 350.395 81.4294 349.791 81.4802 349.187C82.3436 339.731 83.1127 330.536 83.6206 322.912C85.5869 293.313 154.465 273.584 154.465 273.584C154.465 273.584 154.777 273.897 155.401 274.443C159.203 277.789 174.635 289.923 201.699 293.313C225.831 296.339 233.776 281.986 236.178 275.112C236.903 273.017 237.121 271.613 237.121 271.613L307.965 305.155C312.587 311.775 314.393 326.033 314.749 342.059C314.763 342.72 314.778 343.375 314.785 344.044Z" fill="#045020"/>
<path d="M329.971 56.6752C293.519 20.1283 245.051 0 193.5 0C141.949 0 93.481 20.1283 57.0287 56.6752C20.5764 93.2219 0.5 141.815 0.5 193.5C0.5 240.675 17.2243 285.274 47.8721 320.49C50.7961 323.858 53.8507 327.139 57.0287 330.325C57.776 331.074 58.5306 331.823 59.2925 332.551C61.324 334.522 63.3919 336.45 65.496 338.319C66.773 339.462 68.0646 340.582 69.3706 341.68C70.3936 342.546 71.4167 343.397 72.4542 344.234C72.476 344.255 72.4905 344.27 72.5122 344.285C75.3927 346.612 78.324 348.853 81.3133 351.006C113.826 374.386 152.694 387 193.5 387C238.188 387 280.546 371.876 314.785 344.044C317.579 341.775 320.314 339.418 322.999 336.981C325.371 334.828 327.693 332.609 329.971 330.325C330.69 329.605 331.408 328.877 332.112 328.143C334.071 326.12 335.972 324.062 337.829 321.974C369.297 286.533 386.5 241.344 386.5 193.5C386.5 141.815 366.424 93.2219 329.971 56.6752ZM337.358 320.162C335.544 322.228 333.686 324.265 331.785 326.251C328.825 329.343 325.77 332.34 322.614 335.228C321.417 336.334 320.205 337.41 318.979 338.48C317.586 339.694 316.178 340.887 314.749 342.059C303.481 351.333 291.139 359.335 277.941 365.853C272.724 368.436 267.377 370.785 261.906 372.888C240.654 381.064 217.589 385.545 193.5 385.545C170.253 385.545 147.964 381.37 127.336 373.731C118.869 370.603 110.684 366.886 102.826 362.631C101.673 362.005 100.526 361.372 99.3871 360.725C93.394 357.32 87.5967 353.603 82.0317 349.588C81.8503 349.457 81.6616 349.318 81.4802 349.188C77.5186 346.321 73.6659 343.302 69.9437 340.131C68.5797 338.974 67.2301 337.803 65.9023 336.603C63.7402 334.675 61.6215 332.689 59.5537 330.652C55.6356 326.804 51.8917 322.796 48.3147 318.628C19.43 284.991 1.95113 241.257 1.95113 193.5C1.95113 87.606 87.8797 1.45489 193.5 1.45489C299.12 1.45489 385.049 87.606 385.049 193.5C385.049 241.991 367.033 286.336 337.358 320.162Z" fill="#045020"/>
</g>
<defs>
<clipPath id="clip0_13_6">
<rect width="387" height="387" fill="white"/>
</clipPath>
</defs>
</svg>
